<?xml version="1.0" encoding="utf-8" standalone="no"?>
<!DOCTYPE svg PUBLIC "-//W3C//DTD SVG 1.1//EN"
  "http://www.w3.org/Graphics/SVG/1.1/DTD/svg11.dtd">
<!-- Created with matplotlib (http://matplotlib.org/) -->
<svg height="345pt" version="1.1" viewBox="0 0 460 345" width="460pt" xmlns="http://www.w3.org/2000/svg" xmlns:xlink="http://www.w3.org/1999/xlink">
 <defs>
  <style type="text/css">
*{stroke-linecap:butt;stroke-linejoin:round;}
  </style>
 </defs>
 <g id="figure_1">
  <g id="patch_1">
   <path d="M 0 345.6 
L 460.8 345.6 
L 460.8 0 
L 0 0 
z
" style="fill:#ffffff;"/>
  </g>
  <g id="axes_1">
   <g id="patch_2">
    <path d="M 57.6 307.584 
L 414.72 307.584 
L 414.72 41.472 
L 57.6 41.472 
z
" style="fill:#ffffff;"/>
   </g>
   <g id="PathCollection_1"/>
   <g id="PathCollection_2">
    <path clip-path="url(#p527547fdf8)" d="M 325.44 130.7522 
L 328.878899 130.176 
L 325.44 129.397083 
L 302.082004 130.176 
z
" style="fill:#440154;"/>
   </g>
   <g id="PathCollection_3">
    <path clip-path="url(#p527547fdf8)" d="M 295.68 131.8921 
L 325.44 132.940977 
L 341.942047 130.176 
L 325.44 126.438255 
L 295.68 127.26309 
L 285.76986 130.176 
z
M 302.082004 130.176 
L 325.44 129.397083 
L 328.878899 130.176 
L 325.44 130.7522 
z
" style="fill:#46075a;"/>
   </g>
   <g id="PathCollection_4">
    <path clip-path="url(#p527547fdf8)" d="M 295.68 133.74165 
L 325.44 135.129753 
L 355.005195 130.176 
L 325.44 123.479428 
L 295.68 124.123661 
L 275.089074 130.176 
z
M 285.76986 130.176 
L 295.68 127.26309 
L 325.44 126.438255 
L 341.942047 130.176 
L 325.44 132.940977 
L 295.68 131.8921 
z
" style="fill:#471164;"/>
   </g>
   <g id="PathCollection_5">
    <path clip-path="url(#p527547fdf8)" d="M 265.92 130.420407 
L 295.68 135.5912 
L 325.44 137.31853 
L 355.2 132.941716 
L 362.618218 130.176 
L 355.2 126.963179 
L 325.44 120.520601 
L 295.68 120.984233 
L 265.92 129.622874 
L 264.865694 130.176 
z
M 275.089074 130.176 
L 295.68 124.123661 
L 325.44 123.479428 
L 355.005195 130.176 
L 325.44 135.129753 
L 295.68 133.74165 
z
" style="fill:#481a6c;"/>
   </g>
   <g id="PathCollection_6">
    <path clip-path="url(#p527547fdf8)" d="M 265.92 132.147226 
L 295.68 137.44075 
L 325.44 139.507307 
L 355.2 135.7493 
L 370.148735 130.176 
L 355.2 123.70172 
L 325.44 117.561773 
L 295.68 117.844804 
L 265.92 125.714844 
L 257.416646 130.176 
z
M 264.865694 130.176 
L 265.92 129.622874 
L 295.68 120.984233 
L 325.44 120.520601 
L 355.2 126.963179 
L 362.618218 130.176 
L 355.2 132.941716 
L 325.44 137.31853 
L 295.68 135.5912 
L 265.92 130.420407 
z
" style="fill:#482374;"/>
   </g>
   <g id="PathCollection_7">
    <path clip-path="url(#p527547fdf8)" d="M 265.92 133.874046 
L 295.68 139.2903 
L 325.44 141.696084 
L 355.2 138.556885 
L 377.679252 130.176 
L 355.2 120.440262 
L 325.44 114.602946 
L 295.68 114.705376 
L 265.92 121.806813 
L 249.967597 130.176 
z
M 257.416646 130.176 
L 265.92 125.714844 
L 295.68 117.844804 
L 325.44 117.561773 
L 355.2 123.70172 
L 370.148735 130.176 
L 355.2 135.7493 
L 325.44 139.507307 
L 295.68 137.44075 
L 265.92 132.147226 
z
" style="fill:#472a7a;"/>
   </g>
   <g id="PathCollection_8">
    <path clip-path="url(#p527547fdf8)" d="M 265.92 135.600866 
L 295.68 141.139849 
L 325.44 143.884861 
L 355.2 141.364469 
L 384.96 130.305077 
L 385.189149 130.176 
L 384.96 130.038299 
L 355.2 117.178804 
L 325.44 111.644118 
L 295.68 111.565947 
L 265.92 117.898783 
L 242.518549 130.176 
z
M 249.967597 130.176 
L 265.92 121.806813 
L 295.68 114.705376 
L 325.44 114.602946 
L 355.2 120.440262 
L 377.679252 130.176 
L 355.2 138.556885 
L 325.44 141.696084 
L 295.68 139.2903 
L 265.92 133.874046 
z
" style="fill:#46337f;"/>
   </g>
   <g id="PathCollection_9">
    <path clip-path="url(#p527547fdf8)" d="M 236.16 130.444306 
L 265.92 137.327686 
L 295.68 142.989399 
L 325.44 146.073638 
L 355.2 144.172054 
L 384.96 134.196752 
L 392.097983 130.176 
L 384.96 125.886628 
L 355.2 113.917346 
L 325.44 108.685291 
L 295.68 108.426519 
L 265.92 113.990752 
L 236.16 129.359857 
L 235.015258 130.176 
z
M 242.518549 130.176 
L 265.92 117.898783 
L 295.68 111.565947 
L 325.44 111.644118 
L 355.2 117.178804 
L 384.96 130.038299 
L 385.189149 130.176 
L 384.96 130.305077 
L 355.2 141.364469 
L 325.44 143.884861 
L 295.68 141.139849 
L 265.92 135.600866 
z
" style="fill:#443a83;"/>
   </g>
   <g id="PathCollection_10">
    <path clip-path="url(#p527547fdf8)" d="M 236.16 132.277067 
L 265.92 139.054506 
L 295.68 144.838949 
L 325.44 148.262414 
L 355.2 146.979638 
L 384.96 138.088426 
L 399.006818 130.176 
L 384.96 121.734956 
L 355.2 110.655888 
L 339.888146 108 
L 325.44 106.249206 
L 295.68 106.059183 
L 277.27237 108 
L 265.92 110.082722 
L 236.16 123.784898 
L 227.19569 130.176 
z
M 235.015258 130.176 
L 236.16 129.359857 
L 265.92 113.990752 
L 295.68 108.426519 
L 325.44 108.685291 
L 355.2 113.917346 
L 384.96 125.886628 
L 392.097983 130.176 
L 384.96 134.196752 
L 355.2 144.172054 
L 325.44 146.073638 
L 295.68 142.989399 
L 265.92 137.327686 
L 236.16 130.444306 
z
" style="fill:#424186;"/>
   </g>
   <g id="PathCollection_11">
    <path clip-path="url(#p527547fdf8)" d="M 236.16 134.109827 
L 265.92 140.781326 
L 295.68 146.688499 
L 325.44 150.451191 
L 355.2 149.787222 
L 384.96 141.9801 
L 405.915652 130.176 
L 384.96 117.583285 
L 357.415615 108 
L 355.2 107.513194 
L 325.44 103.970686 
L 295.68 103.813234 
L 265.92 106.830144 
L 259.872519 108 
L 236.16 118.209939 
L 219.376122 130.176 
z
M 227.19569 130.176 
L 236.16 123.784898 
L 265.92 110.082722 
L 277.27237 108 
L 295.68 106.059183 
L 325.44 106.249206 
L 339.888146 108 
L 355.2 110.655888 
L 384.96 121.734956 
L 399.006818 130.176 
L 384.96 138.088426 
L 355.2 146.979638 
L 325.44 148.262414 
L 295.68 144.838949 
L 265.92 139.054506 
L 236.16 132.277067 
z
" style="fill:#3e4989;"/>
   </g>
   <g id="PathCollection_12">
    <path clip-path="url(#p527547fdf8)" d="M 325.44 152.599497 
L 355.2 152.557882 
L 356.669323 152.352 
L 384.96 145.871775 
L 412.824487 130.176 
L 384.96 113.431613 
L 369.348397 108 
L 355.2 104.89137 
L 325.44 101.692166 
L 295.68 101.567284 
L 265.92 104.325453 
L 246.924712 108 
L 236.16 112.63498 
L 211.556554 130.176 
L 236.16 135.942588 
L 265.92 142.508146 
L 295.68 148.538049 
L 323.655132 152.352 
z
M 219.376122 130.176 
L 236.16 118.209939 
L 259.872519 108 
L 265.92 106.830144 
L 295.68 103.813234 
L 325.44 103.970686 
L 355.2 107.513194 
L 357.415615 108 
L 384.96 117.583285 
L 405.915652 130.176 
L 384.96 141.9801 
L 355.2 149.787222 
L 325.44 150.451191 
L 295.68 146.688499 
L 265.92 140.781326 
L 236.16 134.109827 
z
" style="fill:#3c508b;"/>
   </g>
   <g id="PathCollection_13">
    <path clip-path="url(#p527547fdf8)" d="M 325.44 154.480666 
L 355.2 154.938504 
L 373.659181 152.352 
L 384.96 149.763449 
L 414.72 134.442504 
L 420.607808 130.176 
L 414.72 125.804929 
L 384.96 109.279941 
L 381.281178 108 
L 355.2 102.269546 
L 325.44 99.413646 
L 295.68 99.321335 
L 265.92 101.820762 
L 236.16 107.473079 
L 234.097689 108 
L 206.4 127.276907 
L 202.960815 130.176 
L 206.4 130.948789 
L 236.16 137.775348 
L 265.92 144.234966 
L 295.68 150.387599 
L 310.08878 152.352 
z
M 323.655132 152.352 
L 295.68 148.538049 
L 265.92 142.508146 
L 236.16 135.942588 
L 211.556554 130.176 
L 236.16 112.63498 
L 246.924712 108 
L 265.92 104.325453 
L 295.68 101.567284 
L 325.44 101.692166 
L 355.2 104.89137 
L 369.348397 108 
L 384.96 113.431613 
L 412.824487 130.176 
L 384.96 145.871775 
L 356.669323 152.352 
L 355.2 152.557882 
L 325.44 152.599497 
z
" style="fill:#38588c;"/>
   </g>
   <g id="PathCollection_14">
    <path clip-path="url(#p527547fdf8)" d="M 325.44 156.361834 
L 355.2 157.319126 
L 384.96 153.447657 
L 389.145503 152.352 
L 414.72 140.322154 
L 428.721769 130.176 
L 414.72 119.781176 
L 392.735333 108 
L 384.96 105.639789 
L 355.2 99.647722 
L 325.44 97.135126 
L 295.68 97.075386 
L 265.92 99.316071 
L 236.16 104.347944 
L 221.866246 108 
L 206.4 118.764125 
L 192.86213 130.176 
L 206.4 133.217978 
L 236.16 139.608109 
L 265.92 145.961786 
L 295.68 152.237149 
L 296.522428 152.352 
z
M 310.08878 152.352 
L 295.68 150.387599 
L 265.92 144.234966 
L 236.16 137.775348 
L 206.4 130.948789 
L 202.960815 130.176 
L 206.4 127.276907 
L 234.097689 108 
L 236.16 107.473079 
L 265.92 101.820762 
L 295.68 99.321335 
L 325.44 99.413646 
L 355.2 102.269546 
L 381.281178 108 
L 384.96 109.279941 
L 414.72 125.804929 
L 420.607808 130.176 
L 414.72 134.442504 
L 384.96 149.763449 
L 373.659181 152.352 
L 355.2 154.938504 
L 325.44 154.480666 
z
" style="fill:#355e8d;"/>
   </g>
   <g id="PathCollection_15">
    <path clip-path="url(#p527547fdf8)" d="M 295.68 153.868567 
L 325.44 158.243002 
L 355.2 159.699748 
L 384.96 156.719747 
L 401.645172 152.352 
L 414.72 146.201804 
L 436.83573 130.176 
L 414.72 113.757423 
L 403.976164 108 
L 384.96 102.227623 
L 355.2 97.025898 
L 325.44 94.856606 
L 295.68 94.829437 
L 265.92 96.811381 
L 236.16 101.222808 
L 209.634804 108 
L 206.4 110.251344 
L 182.763444 130.176 
L 206.4 135.487166 
L 236.16 141.440869 
L 265.92 147.688605 
L 288.008647 152.352 
z
M 296.522428 152.352 
L 295.68 152.237149 
L 265.92 145.961786 
L 236.16 139.608109 
L 206.4 133.217978 
L 192.86213 130.176 
L 206.4 118.764125 
L 221.866246 108 
L 236.16 104.347944 
L 265.92 99.316071 
L 295.68 97.075386 
L 325.44 97.135126 
L 355.2 99.647722 
L 384.96 105.639789 
L 392.735333 108 
L 414.72 119.781176 
L 428.721769 130.176 
L 414.72 140.322154 
L 389.145503 152.352 
L 384.96 153.447657 
L 355.2 157.319126 
L 325.44 156.361834 
z
" style="fill:#32648e;"/>
   </g>
   <g id="PathCollection_16">
    <path clip-path="url(#p527547fdf8)" d="M 295.68 155.485543 
L 325.44 160.124171 
L 355.2 162.08037 
L 384.96 159.991838 
L 414.144841 152.352 
L 414.72 152.081454 
L 444.48 130.742625 
L 445.14003 130.176 
L 444.48 129.604896 
L 415.308963 108 
L 414.72 107.778902 
L 384.96 98.815457 
L 355.2 94.404074 
L 325.44 92.578086 
L 295.68 92.583487 
L 265.92 94.30669 
L 236.16 98.097673 
L 206.4 104.849906 
L 195.877751 108 
L 176.64 125.154545 
L 171.166546 130.176 
L 176.64 131.485799 
L 206.4 137.756354 
L 236.16 143.27363 
L 265.92 149.415425 
L 279.829387 152.352 
z
M 288.008647 152.352 
L 265.92 147.688605 
L 236.16 141.440869 
L 206.4 135.487166 
L 182.763444 130.176 
L 206.4 110.251344 
L 209.634804 108 
L 236.16 101.222808 
L 265.92 96.811381 
L 295.68 94.829437 
L 325.44 94.856606 
L 355.2 97.025898 
L 384.96 102.227623 
L 403.976164 108 
L 414.72 113.757423 
L 436.83573 130.176 
L 414.72 146.201804 
L 401.645172 152.352 
L 384.96 156.719747 
L 355.2 159.699748 
L 325.44 158.243002 
L 295.68 153.868567 
z
" style="fill:#2f6b8e;"/>
   </g>
   <g id="PathCollection_17">
    <path clip-path="url(#p527547fdf8)" d="M 295.68 157.102519 
L 325.44 162.005339 
L 355.2 164.460992 
L 384.96 163.263929 
L 414.72 157.048117 
L 427.853999 152.352 
L 444.48 140.531133 
L 456.542116 130.176 
L 444.48 119.739017 
L 428.629921 108 
L 414.72 102.778188 
L 384.96 95.403291 
L 355.2 91.78225 
L 325.44 90.299567 
L 295.68 90.337538 
L 265.92 91.801999 
L 236.16 94.972537 
L 206.4 100.567173 
L 181.572153 108 
L 176.64 112.398063 
L 157.261808 130.176 
L 176.64 134.813206 
L 206.4 140.025542 
L 236.16 145.10639 
L 265.92 151.142245 
L 271.650128 152.352 
z
M 279.829387 152.352 
L 265.92 149.415425 
L 236.16 143.27363 
L 206.4 137.756354 
L 176.64 131.485799 
L 171.166546 130.176 
L 176.64 125.154545 
L 195.877751 108 
L 206.4 104.849906 
L 236.16 98.097673 
L 265.92 94.30669 
L 295.68 92.583487 
L 325.44 92.578086 
L 355.2 94.404074 
L 384.96 98.815457 
L 414.72 107.778902 
L 415.308963 108 
L 444.48 129.604896 
L 445.14003 130.176 
L 444.48 130.742625 
L 414.72 152.081454 
L 414.144841 152.352 
L 384.96 159.991838 
L 355.2 162.08037 
L 325.44 160.124171 
L 295.68 155.485543 
z
" style="fill:#2d718e;"/>
   </g>
   <g id="PathCollection_18">
    <path clip-path="url(#p527547fdf8)" d="M 265.92 152.811785 
L 295.68 158.719496 
L 325.44 163.886508 
L 355.2 166.841614 
L 384.96 166.53602 
L 414.72 161.970744 
L 441.621495 152.352 
L 444.48 150.319641 
L 467.944203 130.176 
L 444.48 109.873138 
L 441.950879 108 
L 414.72 97.777475 
L 384.96 91.991125 
L 355.2 89.160426 
L 325.44 88.021047 
L 295.68 88.091589 
L 265.92 89.297308 
L 236.16 91.847401 
L 206.4 96.284441 
L 176.64 103.844336 
L 164.432346 108 
L 146.88 125.476092 
L 142.049692 130.176 
L 146.88 131.64211 
L 176.64 138.140614 
L 206.4 142.29473 
L 236.16 146.939151 
L 263.1805 152.352 
z
M 271.650128 152.352 
L 265.92 151.142245 
L 236.16 145.10639 
L 206.4 140.025542 
L 176.64 134.813206 
L 157.261808 130.176 
L 176.64 112.398063 
L 181.572153 108 
L 206.4 100.567173 
L 236.16 94.972537 
L 265.92 91.801999 
L 295.68 90.337538 
L 325.44 90.299567 
L 355.2 91.78225 
L 384.96 95.403291 
L 414.72 102.778188 
L 428.629921 108 
L 444.48 119.739017 
L 456.542116 130.176 
L 444.48 140.531133 
L 427.853999 152.352 
L 414.72 157.048117 
L 384.96 163.263929 
L 355.2 164.460992 
L 325.44 162.005339 
L 295.68 157.102519 
z
" style="fill:#2a778e;"/>
   </g>
   <g id="PathCollection_19">
    <path clip-path="url(#p527547fdf8)" d="M 265.92 154.347307 
L 295.68 160.336472 
L 325.44 165.767676 
L 355.2 169.222237 
L 384.96 169.808111 
L 414.72 166.89337 
L 444.48 158.834282 
L 459.499776 152.352 
L 474.24 138.280085 
L 474.24 130.176 
L 474.24 122.053856 
L 459.690818 108 
L 444.48 101.338329 
L 414.72 92.776761 
L 384.96 88.578959 
L 355.2 86.538602 
L 328.891427 85.824 
L 325.44 85.50897 
L 301.99691 85.824 
L 295.68 85.84564 
L 265.92 86.792617 
L 236.16 88.722266 
L 206.4 92.001708 
L 176.64 97.50203 
L 146.88 107.413376 
L 145.378633 108 
L 122.984834 130.176 
L 146.88 137.428736 
L 176.64 141.468021 
L 206.4 144.563918 
L 236.16 148.771911 
L 254.03151 152.352 
z
M 263.1805 152.352 
L 236.16 146.939151 
L 206.4 142.29473 
L 176.64 138.140614 
L 146.88 131.64211 
L 142.049692 130.176 
L 146.88 125.476092 
L 164.432346 108 
L 176.64 103.844336 
L 206.4 96.284441 
L 236.16 91.847401 
L 265.92 89.297308 
L 295.68 88.091589 
L 325.44 88.021047 
L 355.2 89.160426 
L 384.96 91.991125 
L 414.72 97.777475 
L 441.950879 108 
L 444.48 109.873138 
L 467.944203 130.176 
L 444.48 150.319641 
L 441.621495 152.352 
L 414.72 161.970744 
L 384.96 166.53602 
L 355.2 166.841614 
L 325.44 163.886508 
L 295.68 158.719496 
L 265.92 152.811785 
z
" style="fill:#287d8e;"/>
   </g>
   <g id="PathCollection_20">
    <path clip-path="url(#p527547fdf8)" d="M 265.92 155.88283 
L 295.68 161.953448 
L 325.44 167.648844 
L 355.2 171.602859 
L 384.96 173.080202 
L 414.72 171.815997 
L 444.48 167.01513 
L 474.24 155.713119 
L 474.24 152.352 
L 474.24 138.280085 
L 459.499776 152.352 
L 444.48 158.834282 
L 414.72 166.89337 
L 384.96 169.808111 
L 355.2 169.222237 
L 325.44 165.767676 
L 295.68 160.336472 
L 265.92 154.347307 
L 254.03151 152.352 
L 236.16 148.771911 
L 206.4 144.563918 
L 176.64 141.468021 
L 146.88 137.428736 
L 122.984834 130.176 
L 145.378633 108 
L 146.88 107.413376 
L 176.64 97.50203 
L 206.4 92.001708 
L 236.16 88.722266 
L 265.92 86.792617 
L 295.68 85.84564 
L 301.99691 85.824 
L 325.44 85.50897 
L 328.891427 85.824 
L 355.2 86.538602 
L 384.96 88.578959 
L 414.72 92.776761 
L 444.48 101.338329 
L 459.690818 108 
L 474.24 122.053856 
L 474.24 108 
L 474.24 104.592766 
L 444.48 93.115463 
L 414.72 87.776047 
L 394.792533 85.824 
L 384.96 83.321531 
L 355.2 78.52314 
L 325.44 76.698678 
L 295.68 77.080484 
L 265.92 79.646074 
L 236.16 84.888187 
L 231.965508 85.824 
L 206.4 87.718976 
L 176.64 91.159724 
L 146.88 97.282018 
L 119.449108 108 
L 117.12 110.546601 
L 98.186397 130.176 
L 117.12 138.337034 
L 146.88 143.215361 
L 176.64 144.795428 
L 206.4 146.833107 
L 236.16 150.604672 
L 244.88252 152.352 
z
" style="fill:#25838e;"/>
   </g>
   <g id="PathCollection_21">
    <path clip-path="url(#p527547fdf8)" d="M 384.96 181.318818 
L 414.72 182.852926 
L 444.48 177.055699 
L 451.923272 174.528 
L 474.24 170.827773 
L 474.24 155.713119 
L 444.48 167.01513 
L 414.72 171.815997 
L 384.96 173.080202 
L 355.2 171.602859 
L 325.44 167.648844 
L 295.68 161.953448 
L 265.92 155.88283 
L 244.88252 152.352 
L 236.16 150.604672 
L 206.4 146.833107 
L 176.64 144.795428 
L 146.88 143.215361 
L 117.12 138.337034 
L 98.186397 130.176 
L 117.12 110.546601 
L 119.449108 108 
L 146.88 97.282018 
L 176.64 91.159724 
L 206.4 87.718976 
L 231.965508 85.824 
L 236.16 84.888187 
L 265.92 79.646074 
L 295.68 77.080484 
L 325.44 76.698678 
L 355.2 78.52314 
L 384.96 83.321531 
L 394.792533 85.824 
L 414.72 87.776047 
L 444.48 93.115463 
L 474.24 104.592766 
L 474.24 89.456197 
L 454.023068 85.824 
L 444.48 82.289511 
L 414.72 74.243723 
L 384.96 70.328902 
L 355.2 68.486779 
L 325.44 67.888386 
L 295.68 68.251905 
L 265.92 69.572471 
L 236.16 71.997345 
L 206.4 75.790969 
L 176.64 81.586345 
L 160.333764 85.824 
L 146.88 87.15066 
L 117.12 91.88342 
L 87.36 102.716677 
L 77.039778 108 
L 60.54337 130.176 
L 87.36 146.758586 
L 117.12 150.124054 
L 146.88 149.001987 
L 176.64 148.122835 
L 206.4 149.102295 
L 235.221869 152.352 
L 236.16 152.42898 
L 265.92 157.418352 
L 295.68 163.570424 
L 325.44 169.530013 
L 355.2 173.983481 
L 363.85743 174.528 
z
" style="fill:#23898e;"/>
   </g>
   <g id="PathCollection_22">
    <path clip-path="url(#p527547fdf8)" d="M 87.36 351.936 
L 117.12 351.936 
L 146.88 351.936 
L 176.64 351.936 
L 206.4 351.936 
L 236.16 351.936 
L 265.92 351.936 
L 295.68 351.936 
L 325.44 351.936 
L 355.2 351.936 
L 384.96 351.936 
L 414.72 351.936 
L 444.48 351.936 
L 474.24 351.936 
L 474.24 329.76 
L 474.24 307.584 
L 474.24 285.408 
L 474.24 263.232 
L 474.24 241.056 
L 474.24 218.88 
L 474.24 196.704 
L 474.24 174.528 
L 474.24 170.827773 
L 451.923272 174.528 
L 444.48 177.055699 
L 414.72 182.852926 
L 384.96 181.318818 
L 363.85743 174.528 
L 355.2 173.983481 
L 325.44 169.530013 
L 295.68 163.570424 
L 265.92 157.418352 
L 236.16 152.42898 
L 235.221869 152.352 
L 206.4 149.102295 
L 176.64 148.122835 
L 146.88 149.001987 
L 117.12 150.124054 
L 87.36 146.758586 
L 60.54337 130.176 
L 77.039778 108 
L 87.36 102.716677 
L 117.12 91.88342 
L 146.88 87.15066 
L 160.333764 85.824 
L 176.64 81.586345 
L 206.4 75.790969 
L 236.16 71.997345 
L 265.92 69.572471 
L 295.68 68.251905 
L 325.44 67.888386 
L 355.2 68.486779 
L 384.96 70.328902 
L 414.72 74.243723 
L 444.48 82.289511 
L 454.023068 85.824 
L 474.24 89.456197 
L 474.24 85.824 
L 474.24 63.648 
L 474.24 41.472 
L 444.48 41.472 
L 414.72 41.472 
L 384.96 41.472 
L 355.2 41.472 
L 325.44 41.472 
L 295.68 41.472 
L 265.92 41.472 
L 236.16 41.472 
L 206.4 41.472 
L 176.64 41.472 
L 146.88 41.472 
L 117.12 41.472 
L 87.36 41.472 
L 57.6 41.472 
L 57.6 63.648 
L 57.6 85.824 
L 57.6 108 
L 57.6 130.176 
L 57.6 152.352 
L 57.6 174.528 
L 57.6 196.704 
L 57.6 218.88 
L 57.6 241.056 
L 57.6 263.232 
L 57.6 285.408 
L 57.6 307.584 
L 57.6 329.76 
L 57.6 351.936 
z
M 159.911299 307.584 
L 146.88 303.531041 
L 118.713247 285.408 
L 117.12 284.220774 
L 92.799037 263.232 
L 87.36 253.521323 
L 76.955032 241.056 
L 67.77195 218.88 
L 65.899364 196.704 
L 77.700856 174.528 
L 87.36 171.528134 
L 117.12 160.877994 
L 146.88 154.551907 
L 164.986489 152.352 
L 176.64 151.450243 
L 206.4 151.371483 
L 215.096276 152.352 
L 236.16 154.080421 
L 265.92 158.953875 
L 295.68 165.1874 
L 325.44 171.411181 
L 345.747019 174.528 
L 355.2 181.208465 
L 384.96 193.498978 
L 400.137258 196.704 
L 404.34682 218.88 
L 395.361362 241.056 
L 384.96 253.519204 
L 379.520952 263.232 
L 355.2 284.220773 
L 353.606753 285.408 
L 325.44 303.531041 
L 312.408701 307.584 
L 295.68 315.337671 
L 265.92 322.194386 
L 236.16 323.965156 
L 206.4 322.194386 
L 176.64 315.337671 
z
" style="fill:#218f8d;"/>
   </g>
   <g id="PathCollection_23">
    <path clip-path="url(#p527547fdf8)" d="M 176.64 315.337671 
L 206.4 322.194386 
L 236.16 323.965156 
L 265.92 322.194386 
L 295.68 315.337671 
L 312.408701 307.584 
L 325.44 303.531041 
L 353.606753 285.408 
L 355.2 284.220773 
L 379.520952 263.232 
L 384.96 253.519204 
L 395.361362 241.056 
L 404.34682 218.88 
L 400.137258 196.704 
L 384.96 193.498978 
L 355.2 181.208465 
L 345.747019 174.528 
L 325.44 171.411181 
L 295.68 165.1874 
L 265.92 158.953875 
L 236.16 154.080421 
L 215.096276 152.352 
L 206.4 151.371483 
L 176.64 151.450243 
L 164.986489 152.352 
L 146.88 154.551907 
L 117.12 160.877994 
L 87.36 171.528134 
L 77.700856 174.528 
L 65.899364 196.704 
L 67.77195 218.88 
L 76.955032 241.056 
L 87.36 253.521323 
L 92.799037 263.232 
L 117.12 284.220774 
L 118.713247 285.408 
L 146.88 303.531041 
L 159.911299 307.584 
z
M 173.220788 285.408 
L 146.88 273.225319 
L 133.469053 263.232 
L 117.12 243.603518 
L 114.767425 241.056 
L 101.739287 218.88 
L 98.800235 196.704 
L 109.555254 174.528 
L 117.12 171.391153 
L 146.88 159.776387 
L 176.64 154.555298 
L 206.4 153.521748 
L 236.16 155.731861 
L 265.92 160.489397 
L 295.68 166.804377 
L 325.44 173.292349 
L 333.490638 174.528 
L 355.2 189.870105 
L 370.588259 196.704 
L 370.481422 218.88 
L 357.550826 241.056 
L 355.2 243.601816 
L 338.850941 263.232 
L 325.44 273.225316 
L 299.099212 285.408 
L 295.68 287.161306 
L 265.92 296.881331 
L 236.16 299.391561 
L 206.4 296.881331 
L 176.64 287.161306 
z
" style="fill:#1f958b;"/>
   </g>
   <g id="PathCollection_24">
    <path clip-path="url(#p527547fdf8)" d="M 176.64 287.161306 
L 206.4 296.881331 
L 236.16 299.391561 
L 265.92 296.881331 
L 295.68 287.161306 
L 299.099212 285.408 
L 325.44 273.225316 
L 338.850941 263.232 
L 355.2 243.601816 
L 357.550826 241.056 
L 370.481422 218.88 
L 370.588259 196.704 
L 355.2 189.870105 
L 333.490638 174.528 
L 325.44 173.292349 
L 295.68 166.804377 
L 265.92 160.489397 
L 236.16 155.731861 
L 206.4 153.521748 
L 176.64 154.555298 
L 146.88 159.776387 
L 117.12 171.391153 
L 109.555254 174.528 
L 98.800235 196.704 
L 101.739287 218.88 
L 114.767425 241.056 
L 117.12 243.603518 
L 133.469053 263.232 
L 146.88 273.225319 
L 173.220788 285.408 
z
M 156.739328 263.232 
L 146.88 255.885111 
L 131.02017 241.056 
L 120.032262 218.88 
L 117.498463 196.704 
L 125.388871 174.528 
L 146.88 165.000868 
L 176.64 157.577691 
L 206.4 155.581526 
L 236.16 157.383302 
L 265.92 162.02492 
L 295.68 168.421353 
L 322.961183 174.528 
L 325.44 176.793909 
L 353.253478 196.704 
L 352.234459 218.88 
L 341.298954 241.056 
L 325.44 255.884831 
L 315.580667 263.232 
L 295.68 275.05031 
L 265.92 283.246592 
L 236.16 285.36331 
L 206.4 283.246592 
L 176.64 275.050311 
z
" style="fill:#1e9b8a;"/>
   </g>
   <g id="PathCollection_25">
    <path clip-path="url(#p527547fdf8)" d="M 176.64 275.050311 
L 206.4 283.246592 
L 236.16 285.36331 
L 265.92 283.246592 
L 295.68 275.05031 
L 315.580667 263.232 
L 325.44 255.884831 
L 341.298954 241.056 
L 352.234459 218.88 
L 353.253478 196.704 
L 325.44 176.793909 
L 322.961183 174.528 
L 295.68 168.421353 
L 265.92 162.02492 
L 236.16 157.383302 
L 206.4 155.581526 
L 176.64 157.577691 
L 146.88 165.000868 
L 125.388871 174.528 
L 117.498463 196.704 
L 120.032262 218.88 
L 131.02017 241.056 
L 146.88 255.885111 
L 156.739328 263.232 
z
M 175.60582 263.232 
L 146.88 241.826343 
L 146.056113 241.056 
L 130.369408 218.88 
L 126.700264 196.704 
L 137.174158 174.528 
L 146.88 170.225349 
L 176.64 160.600085 
L 206.4 157.641305 
L 236.16 159.034743 
L 265.92 163.560442 
L 295.68 170.038329 
L 315.737412 174.528 
L 325.44 183.397223 
L 344.028953 196.704 
L 341.896449 218.88 
L 326.262991 241.056 
L 325.44 241.825533 
L 296.714176 263.232 
L 295.68 263.846161 
L 265.92 275.546101 
L 236.16 278.567651 
L 206.4 275.546102 
L 176.64 263.846163 
z
" style="fill:#1fa187;"/>
   </g>
   <g id="PathCollection_26">
    <path clip-path="url(#p527547fdf8)" d="M 176.64 263.846163 
L 206.4 275.546102 
L 236.16 278.567651 
L 265.92 275.546101 
L 295.68 263.846161 
L 296.714176 263.232 
L 325.44 241.825533 
L 326.262991 241.056 
L 341.896449 218.88 
L 344.028953 196.704 
L 325.44 183.397223 
L 315.737412 174.528 
L 295.68 170.038329 
L 265.92 163.560442 
L 236.16 159.034743 
L 206.4 157.641305 
L 176.64 160.600085 
L 146.88 170.225349 
L 137.174158 174.528 
L 126.700264 196.704 
L 130.369408 218.88 
L 146.056113 241.056 
L 146.88 241.826343 
L 175.60582 263.232 
z
M 194.854328 263.232 
L 176.64 256.11939 
L 156.425207 241.056 
L 146.88 227.466355 
L 140.706555 218.88 
L 135.902064 196.704 
L 146.88 177.385194 
L 148.267428 174.528 
L 176.64 163.622478 
L 206.4 159.701084 
L 236.16 160.686184 
L 265.92 165.095965 
L 295.68 171.655305 
L 308.51364 174.528 
L 325.44 190.000536 
L 334.804429 196.704 
L 331.558439 218.88 
L 325.44 227.418538 
L 315.89422 241.056 
L 295.68 256.119267 
L 277.465669 263.232 
L 265.92 267.84561 
L 236.16 271.771991 
L 206.4 267.845611 
z
" style="fill:#22a785;"/>
   </g>
   <g id="PathCollection_27">
    <path clip-path="url(#p527547fdf8)" d="M 206.4 267.845611 
L 236.16 271.771991 
L 265.92 267.84561 
L 277.465669 263.232 
L 295.68 256.119267 
L 315.89422 241.056 
L 325.44 227.418538 
L 331.558439 218.88 
L 334.804429 196.704 
L 325.44 190.000536 
L 308.51364 174.528 
L 295.68 171.655305 
L 265.92 165.095965 
L 236.16 160.686184 
L 206.4 159.701084 
L 176.64 163.622478 
L 148.267428 174.528 
L 146.88 177.385194 
L 135.902064 196.704 
L 140.706555 218.88 
L 146.88 227.466355 
L 156.425207 241.056 
L 176.64 256.11939 
L 194.854328 263.232 
z
M 224.542814 263.232 
L 206.4 261.158741 
L 176.64 248.594285 
L 166.523759 241.056 
L 149.676417 218.88 
L 146.88 203.888196 
L 145.103865 196.704 
L 146.88 193.578384 
L 156.130699 174.528 
L 176.64 166.644872 
L 206.4 161.760863 
L 236.16 162.337624 
L 265.92 166.631487 
L 295.68 173.272281 
L 301.289869 174.528 
L 325.44 196.60385 
L 325.579904 196.704 
L 325.44 197.4985 
L 322.606846 218.88 
L 305.7957 241.056 
L 295.68 248.594034 
L 265.92 261.158727 
L 247.777184 263.232 
L 236.16 264.976332 
z
" style="fill:#27ad81;"/>
   </g>
   <g id="PathCollection_28">
    <path clip-path="url(#p527547fdf8)" d="M 236.16 264.976332 
L 247.777184 263.232 
L 265.92 261.158727 
L 295.68 248.594034 
L 305.7957 241.056 
L 322.606846 218.88 
L 325.44 197.4985 
L 325.579904 196.704 
L 325.44 196.60385 
L 301.289869 174.528 
L 295.68 173.272281 
L 265.92 166.631487 
L 236.16 162.337624 
L 206.4 161.760863 
L 176.64 166.644872 
L 156.130699 174.528 
L 146.88 193.578384 
L 145.103865 196.704 
L 146.88 203.888196 
L 149.676417 218.88 
L 166.523759 241.056 
L 176.64 248.594285 
L 206.4 261.158741 
L 224.542814 263.232 
z
M 176.622311 241.056 
L 156.61903 218.88 
L 151.865167 196.704 
L 163.99397 174.528 
L 176.64 169.667265 
L 206.4 163.820642 
L 236.16 163.989065 
L 265.92 168.16701 
L 294.157121 174.528 
L 295.68 175.741283 
L 319.390665 196.704 
L 315.665577 218.88 
L 295.697179 241.056 
L 295.68 241.068802 
L 265.92 255.986767 
L 236.16 259.839342 
L 206.4 255.986817 
L 176.64 241.069181 
z
" style="fill:#2eb37c;"/>
   </g>
   <g id="PathCollection_29">
    <path clip-path="url(#p527547fdf8)" d="M 176.64 241.069181 
L 206.4 255.986817 
L 236.16 259.839342 
L 265.92 255.986767 
L 295.68 241.068802 
L 295.697179 241.056 
L 315.665577 218.88 
L 319.390665 196.704 
L 295.68 175.741283 
L 294.157121 174.528 
L 265.92 168.16701 
L 236.16 163.989065 
L 206.4 163.820642 
L 176.64 169.667265 
L 163.99397 174.528 
L 151.865167 196.704 
L 156.61903 218.88 
L 176.622311 241.056 
z
M 186.936835 241.056 
L 176.64 233.374897 
L 163.561643 218.88 
L 158.04273 196.704 
L 171.857242 174.528 
L 176.64 172.689658 
L 206.4 165.88042 
L 236.16 165.640506 
L 265.92 169.702532 
L 287.340772 174.528 
L 295.68 181.171894 
L 313.248169 196.704 
L 308.724309 218.88 
L 295.68 233.362524 
L 285.382721 241.056 
L 265.92 250.814808 
L 236.16 255.275125 
L 206.4 250.814893 
z
" style="fill:#37b878;"/>
   </g>
   <g id="PathCollection_30">
    <path clip-path="url(#p527547fdf8)" d="M 206.4 250.814893 
L 236.16 255.275125 
L 265.92 250.814808 
L 285.382721 241.056 
L 295.68 233.362524 
L 308.724309 218.88 
L 313.248169 196.704 
L 295.68 181.171894 
L 287.340772 174.528 
L 265.92 169.702532 
L 236.16 165.640506 
L 206.4 165.88042 
L 176.64 172.689658 
L 171.857242 174.528 
L 158.04273 196.704 
L 163.561643 218.88 
L 176.64 233.374897 
L 186.936835 241.056 
z
M 197.251737 241.056 
L 176.64 225.680317 
L 170.504257 218.88 
L 164.220292 196.704 
L 176.64 178.144523 
L 179.887509 174.528 
L 206.4 167.940199 
L 236.16 167.291947 
L 265.92 171.238055 
L 280.524422 174.528 
L 295.68 186.602505 
L 307.105674 196.704 
L 301.78304 218.88 
L 295.68 225.655938 
L 275.067896 241.056 
L 265.92 245.642849 
L 236.16 250.710909 
L 206.4 245.642968 
z
" style="fill:#42be71;"/>
   </g>
   <g id="PathCollection_31">
    <path clip-path="url(#p527547fdf8)" d="M 206.4 245.642968 
L 236.16 250.710909 
L 265.92 245.642849 
L 275.067896 241.056 
L 295.68 225.655938 
L 301.78304 218.88 
L 307.105674 196.704 
L 295.68 186.602505 
L 280.524422 174.528 
L 265.92 171.238055 
L 236.16 167.291947 
L 206.4 167.940199 
L 179.887509 174.528 
L 176.64 178.144523 
L 164.220292 196.704 
L 170.504257 218.88 
L 176.64 225.680317 
L 197.251737 241.056 
z
M 209.139974 241.056 
L 206.4 240.457861 
L 177.464211 218.88 
L 176.64 216.592478 
L 170.397855 196.704 
L 176.64 187.376007 
L 188.177053 174.528 
L 206.4 169.999978 
L 236.16 168.943387 
L 265.92 172.773577 
L 273.708072 174.528 
L 295.68 192.033116 
L 300.963178 196.704 
L 295.68 216.149775 
L 294.823983 218.88 
L 265.92 240.457337 
L 263.179387 241.056 
L 236.16 246.146693 
z
" style="fill:#4ec36b;"/>
   </g>
   <g id="PathCollection_32">
    <path clip-path="url(#p527547fdf8)" d="M 236.16 246.146693 
L 263.179387 241.056 
L 265.92 240.457337 
L 294.823983 218.88 
L 295.68 216.149775 
L 300.963178 196.704 
L 295.68 192.033116 
L 273.708072 174.528 
L 265.92 172.773577 
L 236.16 168.943387 
L 206.4 169.999978 
L 188.177053 174.528 
L 176.64 187.376007 
L 170.397855 196.704 
L 176.64 216.592478 
L 177.464211 218.88 
L 206.4 240.457861 
L 209.139974 241.056 
z
M 233.365606 241.056 
L 206.4 235.169378 
L 184.556037 218.88 
L 176.64 196.909771 
L 176.575417 196.704 
L 176.64 196.60749 
L 196.466597 174.528 
L 206.4 172.059757 
L 236.16 170.594828 
L 265.92 174.3091 
L 266.891722 174.528 
L 294.807298 196.704 
L 287.735406 218.88 
L 265.92 235.165589 
L 238.954328 241.056 
L 236.16 241.582476 
z
" style="fill:#5cc863;"/>
   </g>
   <g id="PathCollection_33">
    <path clip-path="url(#p527547fdf8)" d="M 236.16 241.582476 
L 238.954328 241.056 
L 265.92 235.165589 
L 287.735406 218.88 
L 294.807298 196.704 
L 266.891722 174.528 
L 265.92 174.3091 
L 236.16 170.594828 
L 206.4 172.059757 
L 196.466597 174.528 
L 176.64 196.60749 
L 176.575417 196.704 
L 176.64 196.909771 
L 184.556037 218.88 
L 206.4 235.169378 
L 233.365606 241.056 
z
M 191.647863 218.88 
L 182.896485 196.704 
L 204.756142 174.528 
L 206.4 174.119535 
L 236.16 172.246269 
L 254.523702 174.528 
L 265.92 178.764612 
L 288.569124 196.704 
L 280.646829 218.88 
L 265.92 229.87384 
L 236.16 236.926519 
L 206.4 229.880895 
z
" style="fill:#69cd5b;"/>
   </g>
   <g id="PathCollection_34">
    <path clip-path="url(#p527547fdf8)" d="M 206.4 229.880895 
L 236.16 236.926519 
L 265.92 229.87384 
L 280.646829 218.88 
L 288.569124 196.704 
L 265.92 178.764612 
L 254.523702 174.528 
L 236.16 172.246269 
L 206.4 174.119535 
L 204.756142 174.528 
L 182.896485 196.704 
L 191.647863 218.88 
z
M 198.739689 218.88 
L 189.219069 196.704 
L 206.4 179.57999 
L 226.56168 174.528 
L 236.16 173.89771 
L 241.232668 174.528 
L 265.92 183.705599 
L 282.33095 196.704 
L 273.558252 218.88 
L 265.92 224.582091 
L 236.16 232.258599 
L 206.4 224.592411 
z
" style="fill:#7ad151;"/>
   </g>
   <g id="PathCollection_35">
    <path clip-path="url(#p527547fdf8)" d="M 206.4 224.592411 
L 236.16 232.258599 
L 265.92 224.582091 
L 273.558252 218.88 
L 282.33095 196.704 
L 265.92 183.705599 
L 241.232668 174.528 
L 236.16 173.89771 
L 226.56168 174.528 
L 206.4 179.57999 
L 189.219069 196.704 
L 198.739689 218.88 
z
M 205.831514 218.88 
L 195.541653 196.704 
L 206.4 185.881627 
L 236.16 177.708364 
L 265.92 188.646586 
L 276.092776 196.704 
L 266.469675 218.88 
L 265.92 219.290342 
L 236.16 227.590679 
L 206.4 219.303928 
z
" style="fill:#89d548;"/>
   </g>
   <g id="PathCollection_36">
    <path clip-path="url(#p527547fdf8)" d="M 206.4 219.303928 
L 236.16 227.590679 
L 265.92 219.290342 
L 266.469675 218.88 
L 276.092776 196.704 
L 265.92 188.646586 
L 236.16 177.708364 
L 206.4 185.881627 
L 195.541653 196.704 
L 205.831514 218.88 
z
M 221.727973 218.88 
L 206.4 206.420934 
L 201.864237 196.704 
L 206.4 192.183264 
L 236.16 182.851762 
L 265.92 193.587573 
L 269.854601 196.704 
L 265.92 205.7094 
L 250.57091 218.88 
L 236.16 222.92276 
z
" style="fill:#98d83e;"/>
   </g>
   <g id="PathCollection_37">
    <path clip-path="url(#p527547fdf8)" d="M 236.16 222.92276 
L 250.57091 218.88 
L 265.92 205.7094 
L 269.854601 196.704 
L 265.92 193.587573 
L 236.16 182.851762 
L 206.4 192.183264 
L 201.864237 196.704 
L 206.4 206.420934 
L 221.727973 218.88 
z
M 210.656696 196.704 
L 236.16 187.99516 
L 260.591708 196.704 
L 236.16 217.254524 
z
" style="fill:#aadc32;"/>
   </g>
   <g id="PathCollection_38">
    <path clip-path="url(#p527547fdf8)" d="M 236.16 217.254524 
L 260.591708 196.704 
L 236.16 187.99516 
L 210.656696 196.704 
z
M 225.718821 196.704 
L 236.16 193.138558 
L 246.162462 196.704 
L 236.16 205.117486 
z
" style="fill:#bade28;"/>
   </g>
   <g id="PathCollection_39">
    <path clip-path="url(#p527547fdf8)" d="M 236.16 205.117486 
L 246.162462 196.704 
L 236.16 193.138558 
L 225.718821 196.704 
z
" style="fill:#cde11d;"/>
   </g>
   <g id="matplotlib.axis_1"/>
   <g id="matplotlib.axis_2"/>
   <g id="patch_3">
    <path d="M 57.6 307.584 
L 57.6 41.472 
" style="fill:none;stroke:#000000;stroke-linecap:square;stroke-linejoin:miter;stroke-width:0.8;"/>
   </g>
   <g id="patch_4">
    <path d="M 414.72 307.584 
L 414.72 41.472 
" style="fill:none;stroke:#000000;stroke-linecap:square;stroke-linejoin:miter;stroke-width:0.8;"/>
   </g>
   <g id="patch_5">
    <path d="M 57.6 307.584 
L 414.72 307.584 
" style="fill:none;stroke:#000000;stroke-linecap:square;stroke-linejoin:miter;stroke-width:0.8;"/>
   </g>
   <g id="patch_6">
    <path d="M 57.6 41.472 
L 414.72 41.472 
" style="fill:none;stroke:#000000;stroke-linecap:square;stroke-linejoin:miter;stroke-width:0.8;"/>
   </g>
  </g>
 </g>
 <defs>
  <clipPath id="p527547fdf8">
   <rect height="266.112" width="357.12" x="57.6" y="41.472"/>
  </clipPath>
 </defs>
</svg>
