<?xml version="1.0" encoding="utf-8" standalone="no"?>
<!DOCTYPE svg PUBLIC "-//W3C//DTD SVG 1.1//EN"
  "http://www.w3.org/Graphics/SVG/1.1/DTD/svg11.dtd">
<!-- Created with matplotlib (http://matplotlib.org/) -->
<svg height="345pt" version="1.1" viewBox="0 0 460 345" width="460pt" xmlns="http://www.w3.org/2000/svg" xmlns:xlink="http://www.w3.org/1999/xlink">
 <defs>
  <style type="text/css">
*{stroke-linecap:butt;stroke-linejoin:round;}
  </style>
 </defs>
 <g id="figure_1">
  <g id="patch_1">
   <path d="M 0 345.6 
L 460.8 345.6 
L 460.8 0 
L 0 0 
z
" style="fill:#ffffff;"/>
  </g>
  <g id="axes_1">
   <g id="patch_2">
    <path d="M 57.6 307.584 
L 414.72 307.584 
L 414.72 41.472 
L 57.6 41.472 
z
" style="fill:#ffffff;"/>
   </g>
   <g id="patch_3">
    <path clip-path="url(#p9f68694ff1)" d="M 113.835857 307.584 
L 123.963762 307.584 
L 123.963762 306.769423 
L 113.835857 306.769423 
z
" style="fill:#1f77b4;"/>
   </g>
   <g id="patch_4">
    <path clip-path="url(#p9f68694ff1)" d="M 123.963762 307.584 
L 134.091667 307.584 
L 134.091667 306.362134 
L 123.963762 306.362134 
z
" style="fill:#1f77b4;"/>
   </g>
   <g id="patch_5">
    <path clip-path="url(#p9f68694ff1)" d="M 134.091667 307.584 
L 144.219573 307.584 
L 144.219573 305.343912 
L 134.091667 305.343912 
z
" style="fill:#1f77b4;"/>
   </g>
   <g id="patch_6">
    <path clip-path="url(#p9f68694ff1)" d="M 144.219573 307.584 
L 154.347478 307.584 
L 154.347478 300.660092 
L 144.219573 300.660092 
z
" style="fill:#1f77b4;"/>
   </g>
   <g id="patch_7">
    <path clip-path="url(#p9f68694ff1)" d="M 154.347478 307.584 
L 164.475383 307.584 
L 164.475383 293.939828 
L 154.347478 293.939828 
z
" style="fill:#1f77b4;"/>
   </g>
   <g id="patch_8">
    <path clip-path="url(#p9f68694ff1)" d="M 164.475383 307.584 
L 174.603288 307.584 
L 174.603288 275.40819 
L 164.475383 275.40819 
z
" style="fill:#1f77b4;"/>
   </g>
   <g id="patch_9">
    <path clip-path="url(#p9f68694ff1)" d="M 174.603288 307.584 
L 184.731193 307.584 
L 184.731193 256.469264 
L 174.603288 256.469264 
z
" style="fill:#1f77b4;"/>
   </g>
   <g id="patch_10">
    <path clip-path="url(#p9f68694ff1)" d="M 184.731193 307.584 
L 194.859098 307.584 
L 194.859098 214.925814 
L 184.731193 214.925814 
z
" style="fill:#1f77b4;"/>
   </g>
   <g id="patch_11">
    <path clip-path="url(#p9f68694ff1)" d="M 194.859098 307.584 
L 204.987003 307.584 
L 204.987003 159.738191 
L 194.859098 159.738191 
z
" style="fill:#1f77b4;"/>
   </g>
   <g id="patch_12">
    <path clip-path="url(#p9f68694ff1)" d="M 204.987003 307.584 
L 215.114908 307.584 
L 215.114908 115.547364 
L 204.987003 115.547364 
z
" style="fill:#1f77b4;"/>
   </g>
   <g id="patch_13">
    <path clip-path="url(#p9f68694ff1)" d="M 215.114908 307.584 
L 225.242814 307.584 
L 225.242814 81.538755 
L 215.114908 81.538755 
z
" style="fill:#1f77b4;"/>
   </g>
   <g id="patch_14">
    <path clip-path="url(#p9f68694ff1)" d="M 225.242814 307.584 
L 235.370719 307.584 
L 235.370719 54.861343 
L 225.242814 54.861343 
z
" style="fill:#1f77b4;"/>
   </g>
   <g id="patch_15">
    <path clip-path="url(#p9f68694ff1)" d="M 235.370719 307.584 
L 245.498624 307.584 
L 245.498624 68.098227 
L 235.370719 68.098227 
z
" style="fill:#1f77b4;"/>
   </g>
   <g id="patch_16">
    <path clip-path="url(#p9f68694ff1)" d="M 245.498624 307.584 
L 255.626529 307.584 
L 255.626529 83.16791 
L 245.498624 83.16791 
z
" style="fill:#1f77b4;"/>
   </g>
   <g id="patch_17">
    <path clip-path="url(#p9f68694ff1)" d="M 255.626529 307.584 
L 265.754434 307.584 
L 265.754434 110.456255 
L 255.626529 110.456255 
z
" style="fill:#1f77b4;"/>
   </g>
   <g id="patch_18">
    <path clip-path="url(#p9f68694ff1)" d="M 265.754434 307.584 
L 275.882339 307.584 
L 275.882339 169.105832 
L 265.754434 169.105832 
z
" style="fill:#1f77b4;"/>
   </g>
   <g id="patch_19">
    <path clip-path="url(#p9f68694ff1)" d="M 275.882339 307.584 
L 286.010244 307.584 
L 286.010244 209.020127 
L 275.882339 209.020127 
z
" style="fill:#1f77b4;"/>
   </g>
   <g id="patch_20">
    <path clip-path="url(#p9f68694ff1)" d="M 286.010244 307.584 
L 296.138149 307.584 
L 296.138149 249.341712 
L 286.010244 249.341712 
z
" style="fill:#1f77b4;"/>
   </g>
   <g id="patch_21">
    <path clip-path="url(#p9f68694ff1)" d="M 296.138149 307.584 
L 306.266054 307.584 
L 306.266054 273.371747 
L 296.138149 273.371747 
z
" style="fill:#1f77b4;"/>
   </g>
   <g id="patch_22">
    <path clip-path="url(#p9f68694ff1)" d="M 306.266054 307.584 
L 316.39396 307.584 
L 316.39396 293.532539 
L 306.266054 293.532539 
z
" style="fill:#1f77b4;"/>
   </g>
   <g id="patch_23">
    <path clip-path="url(#p9f68694ff1)" d="M 316.39396 307.584 
L 326.521865 307.584 
L 326.521865 299.845514 
L 316.39396 299.845514 
z
" style="fill:#1f77b4;"/>
   </g>
   <g id="patch_24">
    <path clip-path="url(#p9f68694ff1)" d="M 326.521865 307.584 
L 336.64977 307.584 
L 336.64977 305.140268 
L 326.521865 305.140268 
z
" style="fill:#1f77b4;"/>
   </g>
   <g id="patch_25">
    <path clip-path="url(#p9f68694ff1)" d="M 336.64977 307.584 
L 346.777675 307.584 
L 346.777675 305.751201 
L 336.64977 305.751201 
z
" style="fill:#1f77b4;"/>
   </g>
   <g id="patch_26">
    <path clip-path="url(#p9f68694ff1)" d="M 346.777675 307.584 
L 356.90558 307.584 
L 356.90558 307.584 
L 346.777675 307.584 
z
" style="fill:#1f77b4;"/>
   </g>
   <g id="patch_27">
    <path clip-path="url(#p9f68694ff1)" d="M 356.90558 307.584 
L 367.033485 307.584 
L 367.033485 307.176711 
L 356.90558 307.176711 
z
" style="fill:#1f77b4;"/>
   </g>
   <g id="matplotlib.axis_1"/>
   <g id="matplotlib.axis_2"/>
   <g id="line2d_1">
    <path clip-path="url(#p9f68694ff1)" d="M 73.832727 307.583056 
L 108.930516 307.466794 
L 118.679902 307.220531 
L 125.179492 306.848829 
L 130.379165 306.32915 
L 134.603898 305.682683 
L 138.178673 304.917083 
L 141.428468 303.994485 
L 144.353284 302.934152 
L 146.95312 301.771093 
L 149.552957 300.363572 
L 151.827813 298.900862 
L 154.10267 297.19298 
L 156.377527 295.21008 
L 158.652383 292.920955 
L 160.92724 290.293454 
L 163.202097 287.294986 
L 165.476953 283.893138 
L 167.75181 280.056391 
L 170.026667 275.754941 
L 172.301523 270.961599 
L 174.57638 265.652778 
L 176.851237 259.809525 
L 179.451073 252.460422 
L 182.050909 244.387385 
L 184.650745 235.595158 
L 187.575561 224.87001 
L 190.500377 213.315212 
L 193.750172 199.606643 
L 197.649926 182.169933 
L 203.174578 156.324733 
L 210.649107 121.460584 
L 214.223882 105.865971 
L 217.148698 94.073845 
L 219.748534 84.539406 
L 222.023391 77.064 
L 223.973268 71.382254 
L 225.923145 66.431923 
L 227.548043 62.902637 
L 229.17294 59.942821 
L 230.472858 57.999768 
L 231.772776 56.44442 
L 233.072695 55.284192 
L 234.047633 54.676729 
L 235.022572 54.296323 
L 235.99751 54.144 
L 236.972449 54.220173 
L 237.947387 54.524635 
L 238.922326 55.056565 
L 239.897265 55.814525 
L 241.197183 57.173124 
L 242.497101 58.923366 
L 243.797019 61.056925 
L 245.421916 64.247372 
L 247.046814 67.997447 
L 248.671712 72.279908 
L 250.621589 78.078083 
L 252.571466 84.539406 
L 254.846323 92.829393 
L 257.446159 103.159756 
L 260.695954 117.102276 
L 264.595708 134.883245 
L 278.569828 199.606643 
L 282.144603 214.637701 
L 285.394398 227.327443 
L 288.319214 237.859815 
L 290.91905 246.473503 
L 293.518886 254.365439 
L 296.118722 261.53445 
L 298.718559 267.992441 
L 300.993415 273.077727 
L 303.268272 277.657137 
L 305.543129 281.755925 
L 307.817985 285.402518 
L 310.092842 288.62756 
L 312.367699 291.463047 
L 314.642555 293.941551 
L 316.917412 296.095545 
L 319.192269 297.95683 
L 321.467125 299.556074 
L 324.066962 301.10025 
L 326.666798 302.380876 
L 329.591613 303.55286 
L 332.516429 304.486105 
L 335.766224 305.293847 
L 339.340999 305.960261 
L 343.565733 306.519306 
L 348.765405 306.965215 
L 355.264996 307.281122 
L 364.364423 307.479854 
L 380.613399 307.571268 
L 398.487273 307.583056 
L 398.487273 307.583056 
" style="fill:none;stroke:#ff7f0e;stroke-linecap:square;stroke-width:4;"/>
   </g>
   <g id="patch_28">
    <path d="M 57.6 307.584 
L 57.6 41.472 
" style="fill:none;stroke:#000000;stroke-linecap:square;stroke-linejoin:miter;stroke-width:0.8;"/>
   </g>
   <g id="patch_29">
    <path d="M 414.72 307.584 
L 414.72 41.472 
" style="fill:none;stroke:#000000;stroke-linecap:square;stroke-linejoin:miter;stroke-width:0.8;"/>
   </g>
   <g id="patch_30">
    <path d="M 57.6 307.584 
L 414.72 307.584 
" style="fill:none;stroke:#000000;stroke-linecap:square;stroke-linejoin:miter;stroke-width:0.8;"/>
   </g>
   <g id="patch_31">
    <path d="M 57.6 41.472 
L 414.72 41.472 
" style="fill:none;stroke:#000000;stroke-linecap:square;stroke-linejoin:miter;stroke-width:0.8;"/>
   </g>
  </g>
 </g>
 <defs>
  <clipPath id="p9f68694ff1">
   <rect height="266.112" width="357.12" x="57.6" y="41.472"/>
  </clipPath>
 </defs>
</svg>
