<?xml version="1.0" encoding="utf-8" standalone="no"?>
<!DOCTYPE svg PUBLIC "-//W3C//DTD SVG 1.1//EN"
  "http://www.w3.org/Graphics/SVG/1.1/DTD/svg11.dtd">
<!-- Created with matplotlib (http://matplotlib.org/) -->
<svg height="345pt" version="1.1" viewBox="0 0 460 345" width="460pt" xmlns="http://www.w3.org/2000/svg" xmlns:xlink="http://www.w3.org/1999/xlink">
 <defs>
  <style type="text/css">
*{stroke-linecap:butt;stroke-linejoin:round;}
  </style>
 </defs>
 <g id="figure_1">
  <g id="patch_1">
   <path d="M 0 345.6 
L 460.8 345.6 
L 460.8 0 
L 0 0 
z
" style="fill:#ffffff;"/>
  </g>
  <g id="axes_1">
   <g id="patch_2">
    <path d="M 57.6 307.584 
L 414.72 307.584 
L 414.72 41.472 
L 57.6 41.472 
z
" style="fill:#ffffff;"/>
   </g>
   <g id="matplotlib.axis_1"/>
   <g id="matplotlib.axis_2"/>
   <g id="line2d_1">
    <path clip-path="url(#pc1bd117f1a)" d="M 57.24288 222.918332 
L 57.6 222.918332 
L 57.95712 218.276574 
L 58.31424 220.133278 
L 58.67136 220.133278 
L 59.02848 217.348223 
L 59.3856 216.419871 
L 60.09984 216.419871 
L 60.45696 212.706465 
L 60.81408 212.706465 
L 61.1712 213.634817 
L 61.52832 210.849762 
L 61.88544 210.849762 
L 62.24256 208.993059 
L 62.59968 208.993059 
L 62.9568 208.064707 
L 63.31392 206.208004 
L 63.67104 206.208004 
L 64.38528 202.494597 
L 64.7424 202.494597 
L 65.45664 200.637894 
L 65.81376 200.637894 
L 66.528 194.139433 
L 66.88512 194.139433 
L 67.24224 192.28273 
L 67.59936 191.354378 
L 67.95648 191.354378 
L 68.67072 182.999214 
L 69.02784 182.999214 
L 69.74208 174.64405 
L 70.0992 174.64405 
L 70.45632 161.647122 
L 70.81344 143.08009 
L 71.52768 92.9491 
L 71.8848 80.880527 
L 72.24192 80.880527 
L 72.59904 98.519209 
L 72.95616 98.519209 
L 73.31328 159.790418 
L 73.6704 187.640972 
L 74.02752 187.640972 
L 74.38464 223.846684 
L 74.74176 235.915255 
L 75.09888 235.915255 
L 75.456 246.127122 
L 75.81312 251.697232 
L 76.17024 255.410638 
L 76.52736 255.410638 
L 76.88448 256.33899 
L 77.2416 258.195693 
L 77.95584 260.052396 
L 78.31296 259.124045 
L 80.09856 259.124045 
L 80.45568 258.195693 
L 81.16992 258.195693 
L 81.88416 256.33899 
L 82.24128 256.33899 
L 82.5984 257.267341 
L 82.95552 255.410638 
L 83.31264 255.410638 
L 83.66976 250.76888 
L 84.02688 254.482287 
L 84.384 254.482287 
L 84.74112 251.697232 
L 85.81248 251.697232 
L 86.1696 248.912177 
L 86.52672 247.983825 
L 86.88384 249.840529 
L 87.24096 249.840529 
L 87.59808 247.983825 
L 88.31232 247.983825 
L 89.02656 246.127122 
L 89.38368 246.127122 
L 89.7408 245.198771 
L 90.09792 246.127122 
L 90.45504 246.127122 
L 90.81216 244.270419 
L 91.88352 244.270419 
L 92.24064 246.127122 
L 92.59776 246.127122 
L 92.95488 241.485364 
L 94.02624 241.485364 
L 94.38336 239.628661 
L 94.74048 240.557013 
L 95.0976 239.628661 
L 95.45472 240.557013 
L 95.81184 239.628661 
L 96.52608 239.628661 
L 96.8832 237.771958 
L 97.59744 237.771958 
L 97.95456 235.915255 
L 98.31168 234.986903 
L 98.6688 234.986903 
L 99.02592 235.915255 
L 99.38304 234.986903 
L 99.74016 234.986903 
L 100.09728 233.1302 
L 100.81152 233.1302 
L 101.16864 231.273497 
L 102.24 231.273497 
L 102.95424 229.416794 
L 103.31136 231.273497 
L 104.0256 229.416794 
L 104.73984 229.416794 
L 105.09696 226.631739 
L 105.8112 226.631739 
L 106.16832 225.703387 
L 106.52544 223.846684 
L 107.95392 223.846684 
L 108.66816 220.133278 
L 109.02528 220.133278 
L 109.3824 219.204926 
L 110.09664 219.204926 
L 110.45376 216.419871 
L 110.81088 216.419871 
L 111.168 213.634817 
L 111.52512 214.563168 
L 111.88224 212.706465 
L 112.23936 211.778113 
L 112.59648 212.706465 
L 112.9536 212.706465 
L 113.31072 208.993059 
L 114.02496 208.993059 
L 114.38208 206.208004 
L 115.09632 206.208004 
L 115.45344 204.351301 
L 115.81056 200.637894 
L 116.5248 200.637894 
L 116.88192 197.852839 
L 117.59616 194.139433 
L 118.3104 194.139433 
L 118.66752 190.426027 
L 119.02464 190.426027 
L 119.38176 185.784269 
L 119.73888 183.927566 
L 120.096 183.927566 
L 120.45312 177.429104 
L 120.81024 174.64405 
L 121.16736 174.64405 
L 121.52448 160.71877 
L 121.8816 138.438332 
L 122.23872 138.438332 
L 122.59584 92.020748 
L 122.95296 79.952176 
L 123.31008 79.952176 
L 123.6672 99.446473 
L 124.73856 189.497675 
L 125.09568 189.497675 
L 125.4528 222.918332 
L 125.80992 234.986903 
L 126.16704 234.986903 
L 126.52416 248.912177 
L 126.88128 249.840529 
L 127.2384 249.840529 
L 127.59552 255.410638 
L 127.95264 259.124045 
L 128.66688 259.124045 
L 129.024 260.052396 
L 129.38112 260.052396 
L 129.73824 259.124045 
L 130.09536 260.980748 
L 130.45248 260.980748 
L 130.8096 259.124045 
L 131.52384 259.124045 
L 131.88096 257.267341 
L 132.23808 257.267341 
L 132.5952 258.195693 
L 132.95232 256.33899 
L 133.30944 256.33899 
L 133.66656 254.482287 
L 134.02368 255.410638 
L 134.3808 255.410638 
L 134.73792 251.697232 
L 135.45216 251.697232 
L 135.80928 252.625583 
L 136.1664 250.76888 
L 136.52352 250.76888 
L 136.88064 251.697232 
L 137.23776 249.840529 
L 137.59488 249.840529 
L 137.952 248.912177 
L 138.30912 248.912177 
L 138.66624 247.983825 
L 139.02336 247.983825 
L 139.7376 246.127122 
L 140.45184 246.127122 
L 140.80896 247.055474 
L 141.16608 246.127122 
L 141.5232 246.127122 
L 141.88032 244.270419 
L 142.23744 246.127122 
L 142.59456 246.127122 
L 142.95168 241.485364 
L 143.3088 243.342067 
L 144.02304 243.342067 
L 144.38016 241.485364 
L 145.0944 241.485364 
L 145.45152 240.557013 
L 145.80864 240.557013 
L 146.16576 237.771958 
L 146.52288 240.557013 
L 146.88 240.557013 
L 147.23712 238.70031 
L 147.59424 239.628661 
L 148.30848 235.915255 
L 148.6656 235.915255 
L 149.02272 237.771958 
L 149.37984 234.986903 
L 150.09408 234.986903 
L 150.4512 236.843606 
L 150.80832 236.843606 
L 151.16544 234.058552 
L 151.87968 234.058552 
L 152.2368 233.1302 
L 152.95104 233.1302 
L 153.30816 232.201848 
L 153.66528 232.201848 
L 154.0224 230.345145 
L 154.37952 229.416794 
L 154.73664 229.416794 
L 155.09376 228.488442 
L 155.808 228.488442 
L 156.16512 225.703387 
L 156.87936 225.703387 
L 157.23648 226.631739 
L 157.5936 222.918332 
L 158.30784 222.918332 
L 158.66496 223.846684 
L 159.02208 223.846684 
L 159.3792 220.133278 
L 159.73632 221.061629 
L 160.09344 220.133278 
L 160.80768 216.419871 
L 161.1648 217.348223 
L 161.52192 216.419871 
L 161.87904 216.419871 
L 162.23616 213.634817 
L 162.59328 214.563168 
L 162.9504 214.563168 
L 163.66464 210.849762 
L 164.02176 210.849762 
L 164.37888 208.993059 
L 165.09312 208.993059 
L 165.45024 208.064707 
L 165.80736 205.279652 
L 166.5216 205.279652 
L 166.87872 203.422949 
L 167.23584 203.422949 
L 167.59296 200.637894 
L 167.95008 199.709543 
L 168.3072 197.852839 
L 168.66432 195.067785 
L 169.37856 191.354378 
L 169.73568 190.426027 
L 170.0928 190.426027 
L 170.44992 185.784269 
L 170.80704 184.855917 
L 171.16416 184.855917 
L 171.52128 178.357456 
L 171.8784 174.64405 
L 172.23552 174.64405 
L 172.94976 150.506903 
L 173.30688 150.506903 
L 173.664 101.304264 
L 174.02112 82.737231 
L 174.37824 82.737231 
L 174.73536 90.164044 
L 175.4496 143.08009 
L 176.16384 200.637894 
L 176.87808 230.345145 
L 177.2352 230.345145 
L 177.59232 246.127122 
L 177.94944 249.840529 
L 178.30656 249.840529 
L 178.66368 255.410638 
L 179.0208 258.195693 
L 179.37792 258.195693 
L 179.73504 259.124045 
L 180.44928 259.124045 
L 180.8064 258.195693 
L 181.16352 259.124045 
L 181.87776 259.124045 
L 182.23488 258.195693 
L 182.592 258.195693 
L 182.94912 259.124045 
L 183.30624 256.33899 
L 183.66336 255.410638 
L 184.02048 256.33899 
L 184.3776 256.33899 
L 184.73472 253.553935 
L 185.44896 253.553935 
L 185.80608 252.625583 
L 186.1632 253.553935 
L 186.52032 253.553935 
L 186.87744 251.697232 
L 187.23456 250.76888 
L 187.59168 250.76888 
L 187.9488 251.697232 
L 188.30592 250.76888 
L 188.66304 250.76888 
L 189.02016 249.840529 
L 189.37728 250.76888 
L 189.7344 250.76888 
L 190.09152 248.912177 
L 190.44864 246.127122 
L 190.80576 247.055474 
L 191.16288 248.912177 
L 191.52 248.912177 
L 191.87712 245.198771 
L 192.23424 246.127122 
L 192.59136 246.127122 
L 192.94848 244.270419 
L 193.66272 244.270419 
L 194.01984 243.342067 
L 194.37696 243.342067 
L 194.73408 241.485364 
L 195.0912 242.413716 
L 195.80544 242.413716 
L 196.16256 241.485364 
L 196.51968 241.485364 
L 196.8768 238.70031 
L 197.23392 239.628661 
L 197.94816 239.628661 
L 198.30528 237.771958 
L 198.6624 237.771958 
L 199.01952 240.557013 
L 199.37664 237.771958 
L 199.73376 237.771958 
L 200.09088 236.843606 
L 200.448 236.843606 
L 200.80512 237.771958 
L 201.16224 234.058552 
L 201.51936 234.058552 
L 201.87648 235.915255 
L 202.2336 234.986903 
L 202.59072 234.986903 
L 202.94784 234.058552 
L 203.66208 234.058552 
L 204.0192 232.201848 
L 204.37632 231.273497 
L 204.73344 231.273497 
L 205.09056 230.345145 
L 205.8048 230.345145 
L 206.16192 228.488442 
L 206.51904 228.488442 
L 206.87616 226.631739 
L 207.23328 227.56009 
L 207.5904 225.703387 
L 207.94752 224.775036 
L 208.66176 224.775036 
L 209.01888 223.846684 
L 209.376 221.989981 
L 209.73312 221.989981 
L 210.09024 222.918332 
L 210.44736 221.989981 
L 210.80448 221.989981 
L 211.1616 219.204926 
L 211.51872 220.133278 
L 211.87584 220.133278 
L 212.23296 219.204926 
L 212.9472 215.49152 
L 213.30432 214.563168 
L 213.66144 216.419871 
L 214.01856 214.563168 
L 214.37568 211.778113 
L 215.08992 211.778113 
L 215.44704 209.92141 
L 215.80416 209.92141 
L 216.16128 207.136355 
L 216.5184 206.208004 
L 216.87552 206.208004 
L 217.23264 204.351301 
L 217.58976 203.422949 
L 217.94688 203.422949 
L 218.304 200.637894 
L 218.66112 198.781191 
L 219.01824 198.781191 
L 219.37536 196.924488 
L 219.73248 194.139433 
L 220.0896 194.139433 
L 220.44672 193.211081 
L 220.80384 193.211081 
L 221.16096 188.569324 
L 221.51808 185.784269 
L 221.8752 185.784269 
L 222.23232 182.070862 
L 222.58944 180.214159 
L 222.94656 180.214159 
L 223.6608 163.503825 
L 224.01792 163.503825 
L 224.37504 127.298096 
L 224.73216 104.08932 
L 225.08928 104.08932 
L 225.4464 78.095473 
L 225.80352 85.522286 
L 226.16064 107.802726 
L 226.87488 172.787341 
L 227.58912 215.49152 
L 227.94624 215.49152 
L 228.30336 237.771958 
L 228.66048 244.270419 
L 229.0176 244.270419 
L 229.37472 251.697232 
L 229.73184 254.482287 
L 230.08896 254.482287 
L 230.44608 257.267341 
L 231.16032 257.267341 
L 231.51744 259.124045 
L 231.87456 258.195693 
L 232.23168 258.195693 
L 232.5888 259.124045 
L 233.30304 259.124045 
L 233.66016 258.195693 
L 234.01728 258.195693 
L 234.3744 257.267341 
L 235.08864 257.267341 
L 235.80288 255.410638 
L 237.23136 255.410638 
L 237.58848 252.625583 
L 237.9456 253.553935 
L 239.01696 250.76888 
L 239.37408 251.697232 
L 240.08832 251.697232 
L 240.44544 248.912177 
L 241.5168 248.912177 
L 241.87392 247.055474 
L 243.3024 247.055474 
L 243.65952 246.127122 
L 244.01664 244.270419 
L 244.37376 244.270419 
L 244.73088 245.198771 
L 245.088 245.198771 
L 245.44512 243.342067 
L 245.80224 244.270419 
L 246.15936 244.270419 
L 246.51648 243.342067 
L 246.8736 240.557013 
L 247.23072 240.557013 
L 247.58784 242.413716 
L 248.6592 242.413716 
L 249.01632 240.557013 
L 249.37344 240.557013 
L 249.73056 239.628661 
L 250.08768 237.771958 
L 250.4448 238.70031 
L 250.80192 237.771958 
L 251.15904 237.771958 
L 251.87328 235.915255 
L 253.30176 235.915255 
L 253.65888 234.058552 
L 254.016 234.986903 
L 254.37312 234.986903 
L 254.73024 233.1302 
L 255.08736 232.201848 
L 255.44448 232.201848 
L 255.8016 233.1302 
L 256.15872 230.345145 
L 256.87296 230.345145 
L 257.23008 231.273497 
L 257.5872 230.345145 
L 257.94432 228.488442 
L 258.30144 228.488442 
L 258.65856 227.56009 
L 259.3728 227.56009 
L 260.08704 225.703387 
L 260.44416 225.703387 
L 260.80128 224.775036 
L 261.51552 224.775036 
L 261.87264 220.133278 
L 262.22976 221.061629 
L 262.58688 221.061629 
L 262.944 218.276574 
L 263.30112 218.276574 
L 263.65824 217.348223 
L 264.37248 217.348223 
L 264.7296 214.563168 
L 265.44384 214.563168 
L 265.80096 210.849762 
L 266.5152 210.849762 
L 266.87232 209.92141 
L 267.58656 209.92141 
L 267.94368 207.136355 
L 268.3008 205.279652 
L 268.65792 205.279652 
L 269.37216 203.422949 
L 269.72928 203.422949 
L 270.0864 201.566246 
L 270.44352 201.566246 
L 270.80064 197.852839 
L 271.15776 195.996136 
L 271.51488 195.996136 
L 271.872 193.211081 
L 272.22912 192.28273 
L 272.58624 192.28273 
L 272.94336 187.640972 
L 273.30048 186.71262 
L 273.6576 186.71262 
L 274.01472 180.214159 
L 274.37184 177.429104 
L 274.72896 177.429104 
L 275.4432 156.077012 
L 275.80032 136.581629 
L 276.15744 110.587781 
L 276.51456 110.587781 
L 276.87168 79.952176 
L 277.2288 81.808879 
L 277.58592 81.808879 
L 278.30016 163.503825 
L 278.65728 163.503825 
L 279.0144 208.993059 
L 279.37152 222.918332 
L 279.72864 222.918332 
L 280.08576 243.342067 
L 281.15712 254.482287 
L 281.51424 254.482287 
L 281.87136 257.267341 
L 282.22848 258.195693 
L 282.5856 258.195693 
L 282.94272 259.124045 
L 283.29984 258.195693 
L 284.01408 258.195693 
L 284.3712 260.980748 
L 284.72832 260.980748 
L 285.44256 259.124045 
L 285.79968 259.124045 
L 286.1568 257.267341 
L 286.87104 257.267341 
L 287.22816 255.410638 
L 287.58528 255.410638 
L 287.9424 253.553935 
L 288.29952 256.33899 
L 288.65664 256.33899 
L 289.01376 251.697232 
L 289.37088 253.553935 
L 289.728 253.553935 
L 290.08512 252.625583 
L 290.44224 249.840529 
L 291.15648 249.840529 
L 291.5136 248.912177 
L 291.87072 248.912177 
L 292.22784 249.840529 
L 292.94208 247.983825 
L 293.2992 249.840529 
L 293.65632 249.840529 
L 294.01344 245.198771 
L 294.37056 247.055474 
L 295.0848 247.055474 
L 295.44192 245.198771 
L 295.79904 245.198771 
L 296.15616 246.127122 
L 296.8704 246.127122 
L 297.22752 244.270419 
L 297.94176 244.270419 
L 298.29888 242.413716 
L 299.01312 242.413716 
L 299.37024 240.557013 
L 300.08448 240.557013 
L 300.4416 239.628661 
L 300.79872 239.628661 
L 301.15584 238.70031 
L 301.51296 239.628661 
L 301.87008 239.628661 
L 302.2272 238.70031 
L 302.58432 236.843606 
L 303.29856 236.843606 
L 303.65568 234.986903 
L 304.0128 234.986903 
L 304.36992 235.915255 
L 304.72704 235.915255 
L 305.08416 233.1302 
L 305.44128 234.058552 
L 306.86976 234.058552 
L 307.22688 231.273497 
L 307.584 230.345145 
L 307.94112 231.273497 
L 308.65536 231.273497 
L 309.01248 228.488442 
L 310.08384 228.488442 
L 310.44096 226.631739 
L 310.79808 226.631739 
L 311.1552 224.775036 
L 311.51232 224.775036 
L 311.86944 222.918332 
L 312.58368 222.918332 
L 312.9408 220.133278 
L 313.65504 220.133278 
L 314.01216 221.061629 
L 314.36928 218.276574 
L 314.7264 218.276574 
L 315.08352 217.348223 
L 315.44064 215.49152 
L 315.79776 215.49152 
L 316.15488 214.563168 
L 316.512 215.49152 
L 317.22624 211.778113 
L 317.94048 211.778113 
L 318.2976 208.993059 
L 318.65472 208.993059 
L 319.01184 209.92141 
L 319.36896 207.136355 
L 319.72608 207.136355 
L 320.0832 204.351301 
L 320.44032 203.422949 
L 320.79744 203.422949 
L 321.15456 199.709543 
L 321.51168 199.709543 
L 322.22592 197.852839 
L 322.58304 195.996136 
L 322.94016 191.354378 
L 323.29728 193.211081 
L 323.6544 193.211081 
L 324.01152 188.569324 
L 324.36864 185.784269 
L 324.72576 185.784269 
L 325.08288 180.214159 
L 325.79712 180.214159 
L 326.51136 162.575473 
L 326.86848 162.575473 
L 327.58272 101.304264 
L 327.93984 101.304264 
L 328.29696 78.095473 
L 328.65408 87.378989 
L 329.36832 143.08009 
L 330.08256 198.781191 
L 330.43968 215.49152 
L 330.7968 215.49152 
L 331.15392 235.915255 
L 331.51104 244.270419 
L 331.86816 244.270419 
L 332.22528 251.697232 
L 332.5824 254.482287 
L 332.93952 254.482287 
L 333.65376 260.052396 
L 334.01088 260.052396 
L 334.368 259.124045 
L 334.72512 259.124045 
L 335.08224 260.052396 
L 335.79648 260.052396 
L 336.1536 258.195693 
L 336.51072 259.124045 
L 336.86784 259.124045 
L 337.22496 257.267341 
L 337.58208 256.33899 
L 337.9392 256.33899 
L 338.29632 257.267341 
L 338.65344 255.410638 
L 339.36768 255.410638 
L 339.7248 252.625583 
L 340.43904 252.625583 
L 340.79616 253.553935 
L 341.86752 253.553935 
L 342.22464 252.625583 
L 342.58176 249.840529 
L 342.93888 249.840529 
L 343.296 251.697232 
L 343.65312 250.76888 
L 344.01024 250.76888 
L 344.36736 247.983825 
L 344.72448 248.912177 
L 345.0816 248.912177 
L 345.43872 247.055474 
L 345.79584 246.127122 
L 346.15296 247.055474 
L 346.8672 247.055474 
L 347.22432 244.270419 
L 347.58144 243.342067 
L 347.93856 243.342067 
L 348.29568 245.198771 
L 348.6528 243.342067 
L 349.00992 243.342067 
L 349.36704 241.485364 
L 349.72416 241.485364 
L 350.08128 242.413716 
L 350.79552 242.413716 
L 351.15264 241.485364 
L 351.86688 241.485364 
L 352.224 238.70031 
L 352.58112 237.771958 
L 352.93824 237.771958 
L 353.29536 239.628661 
L 353.65248 237.771958 
L 354.0096 237.771958 
L 354.36672 236.843606 
L 354.72384 237.771958 
L 355.08096 237.771958 
L 355.43808 236.843606 
L 355.7952 236.843606 
L 356.15232 234.986903 
L 357.22368 234.986903 
L 357.5808 232.201848 
L 357.93792 232.201848 
L 358.65216 230.345145 
L 359.00928 230.345145 
L 359.3664 228.488442 
L 359.72352 230.345145 
L 360.08064 230.345145 
L 360.43776 226.631739 
L 360.79488 228.488442 
L 361.152 227.56009 
L 361.50912 225.703387 
L 361.86624 225.703387 
L 362.22336 224.775036 
L 362.9376 224.775036 
L 363.29472 222.918332 
L 364.00896 222.918332 
L 364.36608 221.061629 
L 365.08032 221.061629 
L 365.43744 220.133278 
L 365.79456 218.276574 
L 366.15168 219.204926 
L 366.86592 215.49152 
L 367.22304 214.563168 
L 367.93728 214.563168 
L 368.2944 211.778113 
L 368.65152 210.849762 
L 369.00864 210.849762 
L 369.36576 211.778113 
L 369.72288 207.136355 
L 370.08 207.136355 
L 370.43712 206.208004 
L 370.79424 204.351301 
L 371.15136 204.351301 
L 371.50848 201.566246 
L 371.8656 200.637894 
L 372.22272 200.637894 
L 372.57984 198.781191 
L 373.29408 196.924488 
L 373.6512 195.067785 
L 374.00832 195.067785 
L 374.36544 192.28273 
L 374.72256 190.426027 
L 375.07968 190.426027 
L 375.4368 185.784269 
L 376.15104 185.784269 
L 376.50816 178.357456 
L 376.86528 177.429104 
L 377.2224 177.429104 
L 377.93664 154.220309 
L 378.29376 154.220309 
L 378.65088 109.65943 
L 379.008 88.307341 
L 379.36512 78.095473 
L 379.72224 81.808879 
L 380.07936 81.808879 
L 380.7936 163.503825 
L 381.15072 163.503825 
L 381.50784 208.993059 
L 381.86496 222.918332 
L 382.22208 222.918332 
L 382.5792 242.413716 
L 382.93632 246.127122 
L 383.29344 246.127122 
L 383.65056 253.553935 
L 384.00768 257.267341 
L 384.3648 257.267341 
L 384.72192 255.410638 
L 385.07904 258.195693 
L 385.43616 260.052396 
L 385.79328 259.124045 
L 387.22176 259.124045 
L 387.57888 258.195693 
L 387.936 258.195693 
L 388.29312 256.33899 
L 389.00736 256.33899 
L 389.36448 255.410638 
L 389.7216 256.33899 
L 390.07872 256.33899 
L 390.43584 257.267341 
L 390.79296 255.410638 
L 391.15008 255.410638 
L 391.5072 253.553935 
L 391.86432 254.482287 
L 392.22144 254.482287 
L 392.57856 251.697232 
L 393.64992 251.697232 
L 394.00704 249.840529 
L 395.0784 249.840529 
L 395.43552 247.983825 
L 395.79264 248.912177 
L 396.14976 248.912177 
L 396.50688 246.127122 
L 396.864 247.055474 
L 397.57824 247.055474 
L 397.93536 245.198771 
L 398.6496 245.198771 
L 399.00672 244.270419 
L 399.36384 244.270419 
L 399.72096 242.413716 
L 400.07808 244.270419 
L 400.4352 243.342067 
L 400.79232 241.485364 
L 401.14944 241.485364 
L 401.50656 243.342067 
L 401.86368 242.413716 
L 402.2208 242.413716 
L 402.93504 240.557013 
L 403.29216 240.557013 
L 403.64928 238.70031 
L 404.0064 239.628661 
L 404.36352 239.628661 
L 404.72064 237.771958 
L 405.07776 238.70031 
L 405.43488 238.70031 
L 405.792 236.843606 
L 406.14912 235.915255 
L 406.50624 236.843606 
L 406.86336 235.915255 
L 407.22048 235.915255 
L 407.5776 233.1302 
L 407.93472 234.058552 
L 408.29184 234.058552 
L 408.64896 233.1302 
L 409.00608 231.273497 
L 409.3632 231.273497 
L 409.72032 232.201848 
L 410.07744 230.345145 
L 410.43456 229.416794 
L 410.79168 229.416794 
L 411.1488 230.345145 
L 411.50592 228.488442 
L 411.86304 227.56009 
L 413.29152 227.56009 
L 414.00576 223.846684 
L 414.72 223.846684 
L 415.07712 222.918332 
L 415.07712 222.918332 
" style="fill:none;stroke:#1f77b4;stroke-linecap:square;stroke-width:4;"/>
   </g>
   <g id="patch_3">
    <path d="M 57.6 307.584 
L 57.6 41.472 
" style="fill:none;stroke:#000000;stroke-linecap:square;stroke-linejoin:miter;stroke-width:0.8;"/>
   </g>
   <g id="patch_4">
    <path d="M 414.72 307.584 
L 414.72 41.472 
" style="fill:none;stroke:#000000;stroke-linecap:square;stroke-linejoin:miter;stroke-width:0.8;"/>
   </g>
   <g id="patch_5">
    <path d="M 57.6 307.584 
L 414.72 307.584 
" style="fill:none;stroke:#000000;stroke-linecap:square;stroke-linejoin:miter;stroke-width:0.8;"/>
   </g>
   <g id="patch_6">
    <path d="M 57.6 41.472 
L 414.72 41.472 
" style="fill:none;stroke:#000000;stroke-linecap:square;stroke-linejoin:miter;stroke-width:0.8;"/>
   </g>
  </g>
 </g>
 <defs>
  <clipPath id="pc1bd117f1a">
   <rect height="266.112" width="357.12" x="57.6" y="41.472"/>
  </clipPath>
 </defs>
</svg>
